<?xml version="1.0" standalone="no"?>
<!DOCTYPE svg PUBLIC "-//W3C//DTD SVG 20010904//EN"
 "http://www.w3.org/TR/2001/REC-SVG-20010904/DTD/svg10.dtd">
<svg version="1.0" xmlns="http://www.w3.org/2000/svg"
 width="200.000000pt" height="200.000000pt" viewBox="0 0 200.000000 200.000000"
 preserveAspectRatio="xMidYMid meet">

<g transform="translate(0.000000,200.000000) scale(0.100000,-0.100000)"
fill="#000000" stroke="none">
<path d="M1147 1434 c-4 -4 -7 -70 -7 -146 l0 -139 28 3 c25 3 27 6 32 63 5
59 6 60 35 60 29 0 30 -1 35 -60 5 -57 7 -60 33 -63 l27 -3 0 71 c0 63 -3 74
-26 97 -21 21 -32 25 -64 20 l-39 -5 -3 52 c-3 43 -6 51 -23 54 -12 2 -24 0
-28 -4z"/>
<path d="M365 1406 c-48 -21 -83 -67 -106 -136 -24 -73 -27 -132 -8 -185 l13
-36 -132 -132 c-73 -73 -132 -137 -132 -143 0 -19 38 -46 57 -40 10 3 76 64
147 135 l129 130 31 -17 c20 -11 55 -17 101 -17 59 0 77 4 118 28 154 91 150
308 -8 398 -41 24 -61 29 -115 29 -36 -1 -78 -7 -95 -14z m195 -29 c83 -43
134 -149 111 -234 -27 -99 -104 -158 -206 -157 -157 0 -254 139 -185 262 42
75 152 107 229 68 47 -25 61 -14 17 13 -49 31 -141 32 -191 2 -42 -24 -46 -15
-7 21 43 40 63 47 127 47 43 0 73 -6 105 -22z m-259 -353 c11 -13 -4 -32 -107
-135 -135 -136 -147 -145 -164 -124 -11 13 7 36 116 145 70 72 131 130 135
130 4 0 12 -7 20 -16z"/>
<path d="M575 1260 c-3 -5 -1 -10 4 -10 6 0 11 5 11 10 0 6 -2 10 -4 10 -3 0
-8 -4 -11 -10z"/>
<path d="M375 1235 c-32 -31 -35 -100 -5 -138 41 -52 129 -59 185 -15 29 23
55 74 55 108 0 34 -17 22 -25 -17 -17 -94 -126 -133 -191 -68 -47 47 -21 135
41 135 27 0 65 -31 65 -54 0 -22 -27 -38 -51 -31 -15 5 -20 3 -17 -6 7 -21 47
-23 69 -3 44 40 1 114 -66 114 -25 0 -44 -8 -60 -25z"/>
<path d="M932 1400 c-84 -51 -79 -190 9 -236 40 -20 113 -20 145 1 24 15 24
18 11 38 -9 12 -21 20 -29 18 -78 -25 -132 1 -132 64 0 61 67 96 123 65 14 -7
23 -4 37 11 18 21 18 21 -5 40 -32 26 -115 26 -159 -1z"/>
<path d="M1414 1331 c-60 -37 -65 -128 -9 -165 37 -24 99 -20 132 8 39 34 40
103 2 141 -34 35 -85 41 -125 16z m80 -60 c25 -28 5 -63 -32 -59 -34 4 -44 45
-16 65 23 17 28 17 48 -6z"/>
<path d="M1652 1335 c-65 -28 -75 -131 -17 -169 33 -22 98 -21 118 2 25 27 5
47 -45 47 -41 0 -43 1 -43 30 0 29 2 30 43 30 39 0 61 14 62 38 0 8 -62 37
-77 37 -4 -1 -23 -7 -41 -15z"/>
<path d="M1860 1343 c-56 -22 -83 -89 -56 -141 20 -38 44 -52 91 -52 49 0 74
15 91 55 17 42 9 87 -21 115 -23 21 -78 34 -105 23z m64 -75 c20 -28 4 -58
-29 -58 -33 0 -49 30 -29 58 8 12 21 22 29 22 8 0 21 -10 29 -22z"/>
<path d="M1107 1023 c-4 -3 -7 -69 -7 -145 l0 -138 25 0 c27 0 33 13 37 85 2
29 8 41 21 43 32 6 47 -17 47 -74 0 -53 0 -54 30 -54 l30 0 0 60 c0 99 -37
143 -105 126 -23 -6 -25 -4 -25 29 0 57 -29 93 -53 68z"/>
<path d="M933 1013 c-28 -5 -63 -48 -63 -78 0 -34 37 -73 75 -81 39 -7 60 -27
51 -49 -8 -21 -39 -19 -70 6 -21 17 -29 19 -41 9 -41 -34 9 -85 81 -85 57 0
94 34 94 86 0 46 -18 66 -76 80 -52 13 -62 25 -41 46 14 14 20 14 48 3 28 -12
33 -12 45 5 12 17 12 21 -3 36 -20 18 -65 28 -100 22z"/>
<path d="M1369 917 c-68 -45 -61 -134 13 -170 69 -34 140 10 140 87 0 44 -16
72 -52 91 -40 21 -61 19 -101 -8z m89 -85 c-2 -22 -8 -27 -32 -27 -17 0 -33 7
-40 18 -9 15 -7 22 12 37 32 26 65 11 60 -28z"/>
<path d="M1560 788 l0 -139 28 3 c25 3 27 7 30 51 3 43 5 47 23 42 30 -10 78
14 94 46 23 43 18 77 -13 109 -26 26 -35 28 -95 28 l-67 0 0 -140z m121 66 c9
-11 10 -20 2 -32 -13 -22 -43 -22 -56 -1 -24 38 25 68 54 33z"/>
</g>
</svg>
