<svg width="582" height="328" viewBox="0 0 582 328" fill="none" xmlns="http://www.w3.org/2000/svg">
<path d="M108.878 77.8182H78.8352C78.6222 75.3324 78.054 73.0774 77.1307 71.0533C76.2429 69.0291 75 67.2891 73.402 65.8331C71.8395 64.3416 69.9396 63.2053 67.7024 62.424C65.4652 61.6072 62.9261 61.1989 60.0852 61.1989C55.1136 61.1989 50.9055 62.4062 47.4609 64.821C44.0518 67.2358 41.4595 70.6981 39.6839 75.2081C37.9439 79.718 37.0739 85.1335 37.0739 91.4545C37.0739 98.1307 37.9616 103.724 39.7372 108.234C41.5483 112.708 44.1584 116.082 47.5675 118.354C50.9766 120.592 55.0781 121.71 59.8722 121.71C62.6065 121.71 65.0568 121.373 67.223 120.698C69.3892 119.988 71.2713 118.976 72.8693 117.662C74.4673 116.348 75.7635 114.768 76.7578 112.921C77.7876 111.039 78.4801 108.926 78.8352 106.582L108.878 106.795C108.523 111.412 107.227 116.117 104.989 120.911C102.752 125.67 99.5739 130.073 95.4545 134.121C91.3707 138.134 86.3104 141.366 80.2734 143.816C74.2365 146.266 67.223 147.491 59.233 147.491C49.2188 147.491 40.2344 145.343 32.2798 141.046C24.3608 136.749 18.093 130.428 13.4766 122.083C8.8956 113.738 6.60511 103.528 6.60511 91.4545C6.60511 79.3097 8.94886 69.0824 13.6364 60.7727C18.3239 52.4276 24.6449 46.1243 32.5994 41.8629C40.554 37.566 49.4318 35.4176 59.233 35.4176C66.1222 35.4176 72.4609 36.3587 78.2493 38.2408C84.0376 40.1229 89.1158 42.875 93.4837 46.4972C97.8516 50.0838 101.367 54.505 104.031 59.7607C106.694 65.0163 108.31 71.0355 108.878 77.8182ZM122.314 146V36.9091H151.931V79.5227H191.135V36.9091H220.752V146H191.135V103.386H151.931V146H122.314ZM340.496 91.4545C340.496 103.599 338.135 113.844 333.412 122.19C328.689 130.499 322.314 136.803 314.289 141.099C306.263 145.361 297.314 147.491 287.442 147.491C277.499 147.491 268.515 145.343 260.489 141.046C252.499 136.714 246.143 130.393 241.42 122.083C236.732 113.738 234.388 103.528 234.388 91.4545C234.388 79.3097 236.732 69.0824 241.42 60.7727C246.143 52.4276 252.499 46.1243 260.489 41.8629C268.515 37.566 277.499 35.4176 287.442 35.4176C297.314 35.4176 306.263 37.566 314.289 41.8629C322.314 46.1243 328.689 52.4276 333.412 60.7727C338.135 69.0824 340.496 79.3097 340.496 91.4545ZM310.028 91.4545C310.028 84.9205 309.157 79.4162 307.417 74.9418C305.713 70.4318 303.174 67.0227 299.8 64.7145C296.462 62.3707 292.343 61.1989 287.442 61.1989C282.542 61.1989 278.405 62.3707 275.031 64.7145C271.693 67.0227 269.154 70.4318 267.414 74.9418C265.709 79.4162 264.857 84.9205 264.857 91.4545C264.857 97.9886 265.709 103.511 267.414 108.021C269.154 112.495 271.693 115.904 275.031 118.248C278.405 120.556 282.542 121.71 287.442 121.71C292.343 121.71 296.462 120.556 299.8 118.248C303.174 115.904 305.713 112.495 307.417 108.021C309.157 103.511 310.028 97.9886 310.028 91.4545ZM456.046 77.8182H426.003C425.79 75.3324 425.222 73.0774 424.299 71.0533C423.411 69.0291 422.168 67.2891 420.57 65.8331C419.007 64.3416 417.108 63.2053 414.87 62.424C412.633 61.6072 410.094 61.1989 407.253 61.1989C402.282 61.1989 398.074 62.4062 394.629 64.821C391.22 67.2358 388.627 70.6981 386.852 75.2081C385.112 79.718 384.242 85.1335 384.242 91.4545C384.242 98.1307 385.13 103.724 386.905 108.234C388.716 112.708 391.326 116.082 394.735 118.354C398.145 120.592 402.246 121.71 407.04 121.71C409.775 121.71 412.225 121.373 414.391 120.698C416.557 119.988 418.439 118.976 420.037 117.662C421.635 116.348 422.931 114.768 423.926 112.921C424.956 111.039 425.648 108.926 426.003 106.582L456.046 106.795C455.691 111.412 454.395 116.117 452.157 120.911C449.92 125.67 446.742 130.073 442.623 134.121C438.539 138.134 433.478 141.366 427.441 143.816C421.404 146.266 414.391 147.491 406.401 147.491C396.387 147.491 387.402 145.343 379.448 141.046C371.529 136.749 365.261 130.428 360.645 122.083C356.064 113.738 353.773 103.528 353.773 91.4545C353.773 79.3097 356.117 69.0824 360.804 60.7727C365.492 52.4276 371.813 46.1243 379.767 41.8629C387.722 37.566 396.6 35.4176 406.401 35.4176C413.29 35.4176 419.629 36.3587 425.417 38.2408C431.206 40.1229 436.284 42.875 440.652 46.4972C445.02 50.0838 448.535 54.505 451.199 59.7607C453.862 65.0163 455.478 71.0355 456.046 77.8182ZM575.164 91.4545C575.164 103.599 572.803 113.844 568.08 122.19C563.357 130.499 556.982 136.803 548.957 141.099C540.931 145.361 531.982 147.491 522.11 147.491C512.167 147.491 503.183 145.343 495.157 141.046C487.167 136.714 480.811 130.393 476.088 122.083C471.4 113.738 469.056 103.528 469.056 91.4545C469.056 79.3097 471.4 69.0824 476.088 60.7727C480.811 52.4276 487.167 46.1243 495.157 41.8629C503.183 37.566 512.167 35.4176 522.11 35.4176C531.982 35.4176 540.931 37.566 548.957 41.8629C556.982 46.1243 563.357 52.4276 568.08 60.7727C572.803 69.0824 575.164 79.3097 575.164 91.4545ZM544.695 91.4545C544.695 84.9205 543.825 79.4162 542.085 74.9418C540.381 70.4318 537.842 67.0227 534.468 64.7145C531.13 62.3707 527.011 61.1989 522.11 61.1989C517.21 61.1989 513.073 62.3707 509.699 64.7145C506.361 67.0227 503.822 70.4318 502.082 74.9418C500.377 79.4162 499.525 84.9205 499.525 91.4545C499.525 97.9886 500.377 103.511 502.082 108.021C503.822 112.495 506.361 115.904 509.699 118.248C513.073 120.556 517.21 121.71 522.11 121.71C527.011 121.71 531.13 120.556 534.468 118.248C537.842 115.904 540.381 112.495 542.085 108.021C543.825 103.511 544.695 97.9886 544.695 91.4545Z" fill="white"/>
<path d="M140.838 217C140.554 213.449 139.222 210.679 136.843 208.69C134.499 206.702 130.93 205.707 126.136 205.707C123.082 205.707 120.579 206.08 118.626 206.826C116.708 207.536 115.288 208.513 114.364 209.756C113.441 210.999 112.962 212.419 112.926 214.017C112.855 215.331 113.086 216.521 113.619 217.586C114.187 218.616 115.075 219.557 116.282 220.409C117.489 221.226 119.034 221.972 120.916 222.646C122.798 223.321 125.036 223.925 127.628 224.457L136.577 226.375C142.614 227.653 147.781 229.34 152.077 231.435C156.374 233.531 159.89 235.999 162.624 238.839C165.359 241.645 167.365 244.805 168.643 248.321C169.957 251.837 170.632 255.672 170.668 259.827C170.632 267 168.839 273.072 165.288 278.044C161.737 283.016 156.658 286.798 150.053 289.39C143.484 291.982 135.582 293.278 126.349 293.278C116.868 293.278 108.594 291.876 101.527 289.07C94.4957 286.265 89.027 281.95 85.1207 276.126C81.25 270.267 79.2969 262.774 79.2614 253.648H107.386C107.564 256.986 108.398 259.791 109.89 262.064C111.381 264.337 113.477 266.059 116.175 267.231C118.91 268.403 122.159 268.989 125.923 268.989C129.084 268.989 131.729 268.598 133.86 267.817C135.991 267.036 137.607 265.952 138.707 264.567C139.808 263.183 140.376 261.602 140.412 259.827C140.376 258.158 139.826 256.702 138.761 255.459C137.731 254.18 136.026 253.044 133.647 252.05C131.268 251.02 128.054 250.061 124.006 249.173L113.139 246.83C103.48 244.734 95.8629 241.237 90.2876 236.336C84.7479 231.4 81.9957 224.67 82.0312 216.148C81.9957 209.223 83.8423 203.168 87.571 197.984C91.3352 192.763 96.5376 188.697 103.178 185.786C109.854 182.874 117.507 181.418 126.136 181.418C134.943 181.418 142.56 182.891 148.988 185.839C155.415 188.786 160.369 192.941 163.849 198.303C167.365 203.63 169.141 209.862 169.176 217H140.838ZM181.934 292V182.909H211.55V225.523H250.755V182.909H280.371V292H250.755V249.386H211.55V292H181.934ZM400.115 237.455C400.115 249.599 397.754 259.844 393.031 268.19C388.308 276.499 381.934 282.803 373.908 287.099C365.882 291.361 356.934 293.491 347.061 293.491C337.118 293.491 328.134 291.343 320.108 287.046C312.118 282.714 305.762 276.393 301.039 268.083C296.351 259.738 294.007 249.528 294.007 237.455C294.007 225.31 296.351 215.082 301.039 206.773C305.762 198.428 312.118 192.124 320.108 187.863C328.134 183.566 337.118 181.418 347.061 181.418C356.934 181.418 365.882 183.566 373.908 187.863C381.934 192.124 388.308 198.428 393.031 206.773C397.754 215.082 400.115 225.31 400.115 237.455ZM369.647 237.455C369.647 230.92 368.777 225.416 367.037 220.942C365.332 216.432 362.793 213.023 359.419 210.714C356.081 208.371 351.962 207.199 347.061 207.199C342.161 207.199 338.024 208.371 334.65 210.714C331.312 213.023 328.773 216.432 327.033 220.942C325.328 225.416 324.476 230.92 324.476 237.455C324.476 243.989 325.328 249.511 327.033 254.021C328.773 258.495 331.312 261.904 334.65 264.248C338.024 266.556 342.161 267.71 347.061 267.71C351.962 267.71 356.081 266.556 359.419 264.248C362.793 261.904 365.332 258.495 367.037 254.021C368.777 249.511 369.647 243.989 369.647 237.455ZM413.818 292V182.909H460.906C469.003 182.909 476.088 184.507 482.16 187.703C488.232 190.899 492.955 195.391 496.329 201.18C499.703 206.968 501.389 213.733 501.389 221.474C501.389 229.287 499.649 236.052 496.169 241.769C492.725 247.487 487.877 251.89 481.627 254.979C475.413 258.069 468.151 259.614 459.841 259.614H431.716V236.602H453.875C457.355 236.602 460.32 235.999 462.771 234.791C465.257 233.548 467.156 231.79 468.47 229.518C469.82 227.245 470.494 224.564 470.494 221.474C470.494 218.349 469.82 215.686 468.47 213.484C467.156 211.247 465.257 209.543 462.771 208.371C460.32 207.163 457.355 206.56 453.875 206.56H443.435V292H413.818Z" fill="white"/>
</svg>
