<?xml version="1.0" standalone="no"?>
<!DOCTYPE svg PUBLIC "-//W3C//DTD SVG 20010904//EN"
 "http://www.w3.org/TR/2001/REC-SVG-20010904/DTD/svg10.dtd">
<svg version="1.0" xmlns="http://www.w3.org/2000/svg"
 width="512.000000pt" height="512.000000pt" viewBox="0 0 512.000000 512.000000"
 preserveAspectRatio="xMidYMid meet">

<g transform="translate(0.000000,512.000000) scale(0.100000,-0.100000)"
fill="#000000" stroke="none">
<path d="M2393 4945 c-201 -36 -383 -134 -524 -283 -182 -190 -269 -416 -269
-702 l0 -117 -122 -5 c-100 -5 -136 -10 -191 -31 -158 -61 -280 -193 -324
-352 -15 -53 -29 -318 -104 -1887 -48 -1009 -49 -980 15 -1115 66 -138 211
-250 364 -282 37 -8 440 -11 1325 -11 1401 0 1338 -2 1461 63 88 46 175 136
220 228 66 133 65 104 17 1117 -75 1569 -89 1834 -104 1887 -22 80 -65 155
-125 217 -112 117 -206 157 -388 165 l-121 6 -6 156 c-7 227 -50 368 -162 536
-206 310 -596 476 -962 410z m302 -320 c181 -38 349 -168 433 -335 53 -106 72
-193 72 -337 l0 -113 -640 0 -640 0 0 113 c0 142 19 230 71 337 126 255 419
395 704 335z m1041 -1124 c56 -25 101 -83 113 -145 6 -28 38 -646 73 -1373 52
-1106 60 -1328 49 -1363 -15 -52 -78 -115 -128 -129 -53 -15 -2513 -15 -2566
0 -50 14 -113 77 -128 129 -11 35 -3 255 49 1364 35 726 67 1344 73 1372 12
62 57 120 113 145 39 18 93 19 1176 19 1083 0 1137 -1 1176 -19z"/>
<path d="M1760 3319 c-89 -36 -129 -153 -77 -229 38 -57 71 -75 136 -75 73 0
121 33 146 99 49 127 -80 255 -205 205z"/>
<path d="M3227 3310 c-101 -55 -112 -197 -19 -268 47 -35 135 -39 179 -6 97
72 98 195 1 267 -39 29 -114 32 -161 7z"/>
</g>
</svg>
